<svg width="41" height="40" viewBox="0 0 41 40" fill="none" xmlns="http://www.w3.org/2000/svg">
<path d="M4.29199 36.334V28.334H12.292L4.29199 36.334Z" fill="#00E381"/>
<path d="M8.25032 4.16699H32.0003C33.0501 4.16699 34.0569 4.55581 34.7993 5.24791C35.5416 5.94001 35.9587 6.87869 35.9587 7.85747V26.3098C35.9587 27.2886 35.5416 28.2273 34.7993 28.9194C34.0569 29.6115 33.0501 30.0003 32.0003 30.0003H4.29199V7.85747C4.29199 6.87869 4.70903 5.94001 5.45136 5.24791C6.19369 4.55581 7.20051 4.16699 8.25032 4.16699Z" fill="#007B41"/>
<path d="M8.25032 4.16699H32.0003C33.0501 4.16699 34.0569 4.55581 34.7993 5.24791C35.5416 5.94001 35.9587 6.87869 35.9587 7.85747V26.3098C35.9587 27.2886 35.5416 28.2273 34.7993 28.9194C34.0569 29.6115 33.0501 30.0003 32.0003 30.0003H18.292C10.56 30.0003 4.29199 23.7323 4.29199 16.0003V7.85747C4.29199 6.87869 4.70903 5.94001 5.45136 5.24791C6.19369 4.55581 7.20051 4.16699 8.25032 4.16699Z" fill="url(#paint0_linear_4095_4753)"/>
<path d="M20.2139 20.3003V18.7955L24.7696 12.666H27.1165L22.6574 18.7955L21.5668 18.478H29.1734V20.3003H20.2139ZM25.4184 22.3297V20.3003L25.4875 18.478V16.6695H27.5996V22.3297H25.4184Z" fill="white"/>
<path d="M12.2338 22.3293V20.8798L15.9612 17.3594C16.2557 17.0925 16.472 16.8532 16.61 16.6416C16.7481 16.4299 16.8401 16.2366 16.8861 16.0617C16.9413 15.8869 16.9689 15.7258 16.9689 15.5786C16.9689 15.192 16.8355 14.8975 16.5686 14.695C16.3109 14.4833 15.929 14.3775 15.4228 14.3775C15.0178 14.3775 14.6405 14.4557 14.2907 14.6122C13.9502 14.7687 13.6603 15.0125 13.421 15.3439L11.792 14.2947C12.1601 13.7425 12.6755 13.3053 13.3382 12.9832C14.0008 12.6611 14.7647 12.5 15.6298 12.5C16.3477 12.5 16.9735 12.6196 17.5073 12.8589C18.0504 13.089 18.4691 13.4157 18.7636 13.8391C19.0673 14.2625 19.2192 14.7687 19.2192 15.3577C19.2192 15.6706 19.1778 15.9835 19.0949 16.2964C19.0213 16.6001 18.8649 16.9223 18.6256 17.2628C18.3955 17.6033 18.055 17.9853 17.604 18.4086L14.5116 21.3215L14.0837 20.507H19.5367V22.3293H12.2338Z" fill="white"/>
<defs>
<linearGradient id="paint0_linear_4095_4753" x1="35.9587" y1="7.64888" x2="6.33189" y2="30.2083" gradientUnits="userSpaceOnUse">
<stop stop-color="#00BB6A"/>
<stop offset="1" stop-color="#029C59"/>
</linearGradient>
</defs>
</svg>
