<svg width="29" height="32" viewBox="0 0 29 32" fill="none" xmlns="http://www.w3.org/2000/svg">
<path d="M14.625 32.0001C10.7409 31.449 7.18614 29.5146 4.61411 26.5524C2.04209 23.5901 0.62561 19.7991 0.625008 15.8761V10.3201C0.623619 9.6166 0.807786 8.92519 1.15893 8.31561C1.51007 7.70602 2.01577 7.19983 2.62501 6.84809L12.625 1.13609C13.2293 0.790923 13.9131 0.609375 14.609 0.609375C15.3049 0.609375 15.9887 0.790923 16.593 1.13609L26.625 6.84809C27.2342 7.19983 27.7399 7.70602 28.0911 8.31561C28.4422 8.92519 28.6264 9.6166 28.625 10.3201V15.8721C28.6262 19.796 27.2105 23.5885 24.6382 26.5517C22.0659 29.5149 18.5102 31.4497 14.625 32.0001Z" fill="#007B41"/>
<path d="M13.525 0.763672C13.2161 0.850636 12.9192 0.97559 12.641 1.13567L2.62501 6.84767C2.01577 7.19941 1.51007 7.70561 1.15893 8.31519C0.807786 8.92478 0.623619 9.61619 0.625008 10.3197V16.0037C2.66555 17.5304 5.212 18.2204 7.74418 17.9328C10.2764 17.6452 12.6032 16.4017 14.2494 14.4563C15.8956 12.5109 16.7369 10.0103 16.6016 7.46548C16.4662 4.92062 15.3643 2.52346 13.521 0.763672H13.525Z" fill="#00E381"/>
<path d="M14.625 27.4924C11.855 27.099 9.31955 25.7208 7.48301 23.6103C5.64646 21.4997 4.63183 18.7981 4.625 16.0004V11.3204C4.62529 11.027 4.70314 10.7389 4.85066 10.4853C4.99818 10.2317 5.21012 10.0216 5.465 9.87637L13.797 5.11237C14.0494 4.96895 14.3347 4.89355 14.625 4.89355C14.9153 4.89355 15.2006 4.96895 15.453 5.11237L23.785 9.87637C24.0399 10.0216 24.2518 10.2317 24.3993 10.4853C24.5469 10.7389 24.6247 11.027 24.625 11.3204V15.9764C24.6248 18.7785 23.613 21.4863 21.7758 23.6021C19.9386 25.7178 17.3994 27.0992 14.625 27.4924Z" fill="url(#paint0_linear_4095_4772)"/>
<path d="M12.8232 21.625L16.3482 13.65L16.8732 14.525H12.1607L13.0607 13.575V15.95H11.2607V12.875H18.2732V14.1875L15.0232 21.625H12.8232Z" fill="white"/>
<defs>
<linearGradient id="paint0_linear_4095_4772" x1="24.625" y1="7.93948" x2="1.92474" y2="20.419" gradientUnits="userSpaceOnUse">
<stop stop-color="#00BB6A"/>
<stop offset="1" stop-color="#029C59"/>
</linearGradient>
</defs>
</svg>
