<svg width="41" height="40" viewBox="0 0 41 40" fill="none" xmlns="http://www.w3.org/2000/svg">
<g clip-path="url(#clip0_4095_4744)">
<path d="M27.0416 21.667V28.9703C27.0416 29.2798 26.9554 29.5832 26.7927 29.8465C26.63 30.1098 26.3971 30.3226 26.1203 30.461L22.0937 32.4744C21.8802 32.5811 21.6461 32.6408 21.4075 32.6493C21.1689 32.6577 20.9312 32.6148 20.7106 32.5234C20.49 32.4321 20.2916 32.2943 20.1288 32.1196C19.9661 31.9449 19.8428 31.7372 19.7673 31.5107L18.1875 27.5003" fill="#00E381"/>
<path d="M12.8754 22.4997L8.8652 20.6074C8.63867 20.5318 8.43101 20.4085 8.25628 20.2458C8.08155 20.083 7.94383 19.8846 7.85245 19.664C7.76107 19.4434 7.71817 19.2058 7.72663 18.9671C7.7351 18.7285 7.79475 18.4945 7.90154 18.2809L9.91487 14.2543C10.0533 13.9775 10.266 13.7447 10.5293 13.582C10.7926 13.4192 11.096 13.333 11.4055 13.333H18.7088" fill="#00E381"/>
<path d="M28.8678 20.2058L19.8733 27.4015C19.553 27.6577 19.1495 27.7868 18.7399 27.7641C18.3304 27.7414 17.9436 27.5685 17.6536 27.2785L13.0966 22.7215C12.8065 22.4315 12.6336 22.0447 12.611 21.6351C12.5883 21.2256 12.7174 20.8221 12.9736 20.5018L20.1693 11.5072C21.7937 9.47677 23.8539 7.83766 26.1975 6.71125C28.5412 5.58485 31.1081 5 33.7084 5C34.1504 5 34.5744 5.17559 34.8869 5.48816C35.1995 5.80072 35.3751 6.22464 35.3751 6.66667C35.3751 9.26693 34.7902 11.8339 33.6638 14.1775C32.5374 16.5212 30.8983 18.5814 28.8678 20.2058Z" fill="url(#paint0_linear_4095_4744)"/>
<path d="M9.9585 34.3114L5.375 35L6.06358 30.4165C6.1724 29.6922 6.51059 29.0218 7.02851 28.5039C7.54642 27.986 8.21675 27.6478 8.94107 27.539C9.4709 27.4594 10.012 27.5052 10.5209 27.6728C11.0298 27.8404 11.4923 28.125 11.8712 28.5039C12.25 28.8828 12.5347 29.3452 12.7023 29.8541C12.8699 30.363 12.9157 30.9042 12.8361 31.434C12.7272 32.1583 12.389 32.8286 11.8711 33.3465C11.3532 33.8644 10.6828 34.2026 9.9585 34.3114Z" fill="#007B41"/>
</g>
<defs>
<linearGradient id="paint0_linear_4095_4744" x1="35.3751" y1="8.06855" x2="11.0942" y2="23.1515" gradientUnits="userSpaceOnUse">
<stop stop-color="#00BB6A"/>
<stop offset="1" stop-color="#029C59"/>
</linearGradient>
<clipPath id="clip0_4095_4744">
<rect width="40" height="40" fill="white" transform="translate(0.375)"/>
</clipPath>
</defs>
</svg>
