<svg width="41" height="40" viewBox="0 0 41 40" fill="none" xmlns="http://www.w3.org/2000/svg">
<path d="M12.875 23.2324H28.875V36.0004C28.8757 36.3418 28.7889 36.6777 28.6231 36.9761C28.4572 37.2745 28.2177 37.5254 27.9274 37.7051C27.6371 37.8847 27.3056 37.9871 26.9646 38.0023C26.6235 38.0176 26.2842 37.9454 25.979 37.7924L21.771 35.6804C21.4929 35.5411 21.1861 35.4685 20.875 35.4685C20.5639 35.4685 20.2571 35.5411 19.979 35.6804L15.771 37.7884C15.4661 37.9412 15.1272 38.0135 14.7864 37.9984C14.4457 37.9833 14.1145 37.8813 13.8243 37.7021C13.5341 37.523 13.2946 37.2726 13.1284 36.9747C12.9622 36.6769 12.875 36.3415 12.875 36.0004V23.2324Z" fill="#00E381"/>
<path d="M20.875 32C28.607 32 34.875 25.732 34.875 18C34.875 10.268 28.607 4 20.875 4C13.143 4 6.875 10.268 6.875 18C6.875 25.732 13.143 32 20.875 32Z" fill="#007B41"/>
<path d="M20.875 28C26.3978 28 30.875 23.5228 30.875 18C30.875 12.4772 26.3978 8 20.875 8C15.3522 8 10.875 12.4772 10.875 18C10.875 23.5228 15.3522 28 20.875 28Z" fill="url(#paint0_linear_4095_4763)"/>
<path fill-rule="evenodd" clip-rule="evenodd" d="M26.2885 15.1653L20.267 21.4895C20.0783 21.6877 19.8166 21.7999 19.5429 21.7999C19.2693 21.8 19.0075 21.6879 18.8188 21.4898L15.4609 17.9658L16.9089 16.5861L19.5425 19.35L24.8401 13.7861L26.2885 15.1653Z" fill="white"/>
<defs>
<linearGradient id="paint0_linear_4095_4763" x1="30.875" y1="10.6957" x2="9.54484" y2="23.9456" gradientUnits="userSpaceOnUse">
<stop stop-color="#00BB6A"/>
<stop offset="1" stop-color="#029C59"/>
</linearGradient>
</defs>
</svg>
